#!OML:ASF F:\VICON\USERDATA\INSTALL\rory3\rory3.ASF
:FULLY-SPECIFIED
:DEGREES
417
root -6.61293 18.1924 -15.3815 11.0408 -9.14277 2.99475
lowerback -10.1785 -1.59164 -4.08289
upperback -2.44404 -1.6756 -0.548494
thorax 3.25713 -0.862655 1.51112
lowerneck -16.4999 -6.20501 -1.71471
upperneck 20.8825 -8.35983 0.599039
head 9.40305 -3.9765 -0.591414
rclavicle -4.92085e-014 -3.19049e-014
rhumerus -31.3514 12.4167 -82.4341
rradius 32.0661
rwrist 0.013567
rhand -20.6222 9.93703
rfingers 7.12502
rthumb 5.73913 -19.9653
lclavicle -4.92085e-014 -3.19049e-014
lhumerus -40.8284 -13.0082 87.764
lradius 34.4568
lwrist 12.7711
lhand -10.1462 24.6828
lfingers 7.12502
lthumb 15.8428 54.0547
rfemur -20.191 -21.35 20.6276
rtibia 41.2439
rfoot -28.4043 -17.5382
rtoes -3.91173
lfemur -18.61 12.5629 -25.4989
ltibia 31.2632
lfoot -22.8533 3.72968
ltoes -18.4703
418
root -6.58223 18.1905 -15.3718 10.9175 -8.29331 2.94854
lowerback -10.0061 -1.49875 -3.98602
upperback -2.45598 -1.56627 -0.670054
thorax 3.1375 -0.80518 1.34907
lowerneck -16.4422 -6.10647 -1.43159
upperneck 20.9459 -8.26687 0.461638
head 9.39371 -3.92621 -0.669892
rclavicle 1.52226e-014 9.14409e-015
rhumerus -31.5728 12.7367 -82.8818
rradius 32.5581
rwrist -0.39177
rhand -20.6319 9.9549
rfingers 7.12502
rthumb 5.72979 -19.9476
lclavicle 1.52226e-014 9.14409e-015
lhumerus -40.9228 -13.4385 87.9505
lradius 34.4212
lwrist 12.7577
lhand -8.99031 25.6537
lfingers 7.12502
lthumb 16.9558 54.9336
rfemur -19.8664 -21.2304 20.4231
rtibia 41.4014
rfoot -28.2647 -17.5887
rtoes -3.77898
lfemur -18.3433 12.2057 -25.2851
ltibia 31.0921
lfoot -22.4952 3.19847
ltoes -20.4838
419
root -6.54331 18.1823 -15.3596 10.6718 -7.60596 3.16161
lowerback -9.77684 -1.34384 -4.0371
upperback -2.43344 -1.35828 -0.887711
thorax 3.01899 -0.700029 1.18296
lowerneck -16.4968 -6.04335 -1.29686
upperneck 21.1299 -8.21383 0.438521
head 9.46036 -3.88989 -0.698214
rclavicle 1.86702e-014 1.02374e-014
rhumerus -31.7498 12.6937 -83.2067
rradius 33.0208
rwrist -0.427756
rhand -20.6697 9.98946
rfingers 7.12502
rthumb 5.69327 -19.9141
lclavicle 1.86702e-014 1.02374e-014
lhumerus -40.9696 -13.7766 88.0447
lradius 34.4231
lwrist 12.6015
lhand -8.53691 26.6491
lfingers 7.12502
lthumb 17.3922 55.891
rfemur -19.4718 -21.1673 19.8294
rtibia 41.5964
rfoot -28.1062 -17.4641
rtoes -3.82404
lfemur -18.0023 11.914 -25.3974
ltibia 30.9942
lfoot -22.1549 3.03926
ltoes -24.8478
420
root -6.5004 18.1722 -15.3524 10.9516 -6.93053 3.49108
lowerback -10.028 -1.30921 -4.21937
upperback -2.59686 -1.28292 -0.956473
thorax 2.98584 -0.660755 1.2205
lowerneck -16.4838 -5.94032 -1.55012
upperneck 21.2985 -8.00317 0.424006
head 9.52626 -3.81104 -0.638586
rclavicle -2.55749e-014 2.06736e-014
rhumerus -31.9418 13.3067 -83.4181
rradius 33.5065
rwrist -0.733426
rhand -20.7849 9.89142
rfingers 7.12502
rthumb 5.58202 -20.0151
lclavicle -2.55749e-014 2.06736e-014
lhumerus -41.017 -13.7312 88.2357
lradius 34.3222
lwrist 12.3859
lhand -8.41289 26.787
lfingers 7.12502
lthumb 17.5115 56.0183
rfemur -19.7359 -21.1824 19.2892
rtibia 41.8179
rfoot -27.8426 -17.1604
rtoes -3.19922
lfemur -18.3339 11.8328 -25.8245
ltibia 30.9707
lfoot -22.2003 2.16296
ltoes -24.7899
421
root -6.46404 18.1647 -15.3521 11.3122 -6.20287 3.19587
lowerback -10.2539 -1.24175 -3.83872
upperback -2.73444 -1.2274 -0.869117
thorax 2.95904 -0.629149 1.10224
lowerneck -16.4535 -5.79398 -1.64693
upperneck 21.3544 -7.74951 0.326689
head 9.53782 -3.71114 -0.623031
rclavicle -3.26877e-014 -5.36719e-015
rhumerus -32.0731 13.9491 -83.7258
rradius 34.0405
rwrist -1.16064
rhand -20.7412 9.78309
rfingers 7.12502
rthumb 5.62425 -20.1223
lclavicle -3.26877e-014 -5.36719e-015
lhumerus -41.0405 -13.8013 88.3615
lradius 34.2528
lwrist 12.1659
lhand -7.8409 26.7291
lfingers 7.12502
lthumb 18.0619 55.9104
rfemur -20.0331 -20.9073 19.5032
rtibia 42.0435
rfoot -27.6422 -17.1366
rtoes -2.75379
lfemur -18.7312 11.77 -25.5545
ltibia 30.9967
lfoot -22.2578 1.30965
ltoes -24.5083
422
root -6.43193 18.1563 -15.3479 11.2994 -5.46658 3.01854
lowerback -10.2106 -1.17674 -3.60522
upperback -2.71818 -1.16575 -0.879646
thorax 2.9448 -0.597171 0.96881
lowerneck -16.6027 -5.59845 -1.40949
upperneck 21.4958 -7.48387 0.0954662
head 9.59233 -3.59153 -0.712718
rclavicle 2.05618e-014 4.96962e-016
rhumerus -32.0578 14.1891 -84.0016
rradius 34.5411
rwrist -1.0947
rhand -20.2836 9.73269
rfingers 7.12502
rthumb 6.06599 -20.1605
lclavicle 2.05618e-014 4.96962e-016
lhumerus -40.9648 -13.9814 88.3724
lradius 34.1316
lwrist 11.9567
lhand -7.29355 26.5999
lfingers 7.12502
lthumb 18.5885 55.7317
rfemur -19.8414 -20.4636 19.4402
rtibia 42.2555
rfoot -27.5619 -17.0489
rtoes -2.19898
lfemur -18.7722 11.7115 -25.3313
ltibia 31.1267
lfoot -22.4616 0.697958
ltoes -25.0472
423
root -6.40011 18.1432 -15.3426 11.1779 -4.70653 3.24729
lowerback -10.1331 -1.2061 -3.79061
upperback -2.65984 -1.18367 -0.973082
thorax 2.96501 -0.607439 0.974315
lowerneck -16.9427 -5.35978 -1.09977
upperneck 21.7753 -7.15306 -0.241928
head 9.72479 -3.44514 -0.851088
rclavicle 5.80824e-016 4.07509e-015
rhumerus -31.9473 14.4402 -84.2322
rradius 34.9882
rwrist -0.904129
rhand -19.8279 9.75247
rfingers 7.12502
rthumb 6.50594 -20.1276
lclavicle 5.80824e-016 4.07509e-015
lhumerus -40.901 -14.0891 88.4426
lradius 34.088
lwrist 12.1391
lhand -7.34502 26.7616
lfingers 7.12502
lthumb 18.539 55.8982
rfemur -19.5064 -20.1758 18.8736
rtibia 42.4699
rfoot -27.4806 -16.8307
rtoes -1.75178
lfemur -18.7533 11.8256 -25.5532
ltibia 31.3065
lfoot -22.809 -0.0704922
ltoes -25.693
424
root -6.36838 18.1306 -15.3525 11.3312 -3.90633 2.99192
lowerback -10.0387 -1.18034 -3.41829
upperback -2.73035 -1.19325 -0.975901
thorax 2.83322 -0.607884 0.763935
lowerneck -17.1463 -5.14777 -0.860211
upperneck 21.9063 -6.87428 -0.434687
head 9.79086 -3.31511 -0.927929
rclavicle 9.73113e-015 2.78299e-014
rhumerus -31.9251 14.8957 -84.65
rradius 35.4943
rwrist -1.26672
rhand -20.0418 9.74857
rfingers 7.12502
rthumb 6.29947 -20.1378
lclavicle 9.73113e-015 2.78299e-014
lhumerus -40.9168 -14.3892 88.6117
lradius 34.139
lwrist 12.7889
lhand -8.03938 26.892
lfingers 7.12502
lthumb 17.8709 56.0909
rfemur -19.5511 -19.7385 19.0031
rtibia 42.6861
rfoot -27.2463 -16.875
rtoes -1.40952
lfemur -19.0955 11.8957 -25.2987
ltibia 31.4884
lfoot -23.0278 -0.911858
ltoes -25.5118
425
root -6.33873 18.1208 -15.3621 11.4534 -3.14158 2.78191
lowerback -9.89512 -1.13086 -3.11527
upperback -2.80919 -1.16555 -0.981746
thorax 2.66553 -0.590169 0.594907
lowerneck -17.2649 -4.95265 -0.718198
upperneck 21.9906 -6.62215 -0.506577
head 9.83449 -3.19258 -0.947249
rclavicle -9.33356e-015 1.96797e-014
rhumerus -31.9702 15.3352 -85.0528
rradius 36.0492
rwrist -1.81039
rhand -20.2179 10.0009
rfingers 7.12502
rthumb 6.1294 -19.8904
lclavicle -9.33356e-015 1.96797e-014
lhumerus -40.779 -14.1905 88.4222
lradius 33.9999
lwrist 12.1757
lhand -7.95442 26.8181
lfingers 7.12502
lthumb 17.9527 56.0095
rfemur -19.6072 -19.302 19.052
rtibia 42.9385
rfoot -27.0179 -16.7642
rtoes -0.543038
lfemur -19.3843 11.8462 -25.0853
ltibia 31.6403
lfoot -23.1085 -1.67348
ltoes -24.674
426
root -6.30835 18.1137 -15.3619 11.3751 -2.40979 2.79407
lowerback -9.74622 -1.09286 -3.01617
upperback -2.78902 -1.12778 -1.04611
thorax 2.60013 -0.570339 0.479702
lowerneck -17.1674 -4.72568 -0.659601
upperneck 21.8627 -6.31901 -0.497353
head 9.76945 -3.04768 -0.907305
rclavicle 8.75895e-016 6.16232e-015
rhumerus -31.9222 15.613 -85.383
rradius 36.4888
rwrist -1.99995
rhand -20.3092 10.1532
rfingers 7.12502
rthumb 6.04129 -19.7407
lclavicle 8.75895e-016 6.16232e-015
lhumerus -40.5375 -13.7393 88.0359
lradius 33.6896
lwrist 10.9806
lhand -7.79369 26.5609
lfingers 7.12502
lthumb 18.1073 55.7381
rfemur -19.3645 -18.9275 18.6982
rtibia 43.1899
rfoot -26.968 -16.3395
rtoes 0.720201
lfemur -19.3674 11.7411 -25.0854
ltibia 31.7661
lfoot -23.2415 -2.31296
ltoes -23.7019
427
root -6.27863 18.1083 -15.3641 11.2558 -1.66235 2.92143
lowerback -9.54849 -1.07715 -3.0412
upperback -2.7602 -1.10835 -1.14273
thorax 2.51895 -0.55987 0.39926
lowerneck -16.9221 -4.50975 -0.56045
upperneck 21.573 -6.01792 -0.578995
head 9.61541 -2.91345 -0.898701
rclavicle 6.73694e-015 -5.96354e-016
rhumerus -31.838 15.7983 -85.6787
rradius 36.952
rwrist -2.1271
rhand -20.1532 10.1937
rfingers 7.12502
rthumb 6.19187 -19.6958
lclavicle 6.73694e-015 -5.96354e-016
lhumerus -40.4148 -13.7602 87.9935
lradius 33.5042
lwrist 10.9893
lhand -8.46267 26.064
lfingers 7.12502
lthumb 17.4636 55.2996
rfemur -19.0695 -18.5306 18.2118
rtibia 43.4629
rfoot -26.9859 -15.8584
rtoes 1.90475
lfemur -19.254 11.463 -25.1921
ltibia 31.7926
lfoot -23.2837 -2.87034
ltoes -22.6534
428
root -6.25387 18.1035 -15.3673 11.2258 -0.910011 3.17073
lowerback -9.45317 -1.11292 -3.28594
upperback -2.73209 -1.1328 -1.22538
thorax 2.49888 -0.572288 0.449519
lowerneck -16.756 -4.37004 -0.488522
upperneck 21.2879 -5.80505 -0.706574
head 9.47805 -2.82655 -0.916081
rclavicle 1.06723e-014 -7.7526e-015
rhumerus -31.6887 16.0639 -85.9272
rradius 37.4072
rwrist -2.40418
rhand -19.8247 10.2866
rfingers 7.12502
rthumb 6.50909 -19.5933
lclavicle 1.06723e-014 -7.7526e-015
lhumerus -40.332 -13.8962 88.0928
lradius 33.4434
lwrist 11.4764
lhand -9.03527 25.7242
lfingers 7.12502
lthumb 16.9125 55.0078
rfemur -18.9474 -18.089 17.6407
rtibia 43.7699
rfoot -26.8717 -15.2838
rtoes 3.39405
lfemur -19.2196 11.2233 -25.4311
ltibia 31.7186
lfoot -23.1279 -3.52841
ltoes -22.5252
429
root -6.23388 18.0969 -15.3676 11.2819 -0.121736 3.59612
lowerback -9.48342 -1.20114 -3.74291
upperback -2.71736 -1.20049 -1.33837
thorax 2.5391 -0.607292 0.580023
lowerneck -16.8434 -4.1933 -0.362861
upperneck 21.3335 -5.56871 -0.800331
head 9.50375 -2.71577 -0.941186
rclavicle 2.06674e-014 8.15017e-015
rhumerus -31.5706 16.4224 -86.2564
rradius 37.843
rwrist -2.73133
rhand -19.7664 10.2705
rfingers 7.12502
rthumb 6.5653 -19.6077
lclavicle 2.06674e-014 8.15017e-015
lhumerus -40.1908 -13.9017 88.0694
lradius 33.3711
lwrist 11.6468
lhand -8.98629 25.7597
lfingers 7.12502
lthumb 16.9596 55.0392
rfemur -18.9328 -17.6225 16.9272
rtibia 44.0835
rfoot -26.6657 -14.5812
rtoes 4.76383
lfemur -19.2499 10.9909 -25.8626
ltibia 31.5858
lfoot -22.7539 -4.18867
ltoes -22.651
